<svg xmlns="http://www.w3.org/2000/svg" xmlns:xlink="http://www.w3.org/1999/xlink" width="500" zoomAndPan="magnify" viewBox="0 0 375 374.999991" height="500" preserveAspectRatio="xMidYMid meet" version="1.0"><defs><clipPath id="7e034484ea"><path d="M 38 72 L 353 72 L 353 289 L 38 289 Z M 38 72 " clip-rule="nonzero"/></clipPath><clipPath id="68e1f3cb41"><path d="M 97.59375 29.351562 L 385.25 164.921875 L 277.175781 394.230469 L -10.476562 258.660156 Z M 97.59375 29.351562 " clip-rule="nonzero"/></clipPath><clipPath id="c9a9b8eaae"><path d="M 385.523438 165.050781 L 97.871094 29.480469 L -10.203125 258.789062 L 277.449219 394.359375 Z M 385.523438 165.050781 " clip-rule="nonzero"/></clipPath></defs><g clip-path="url(#7e034484ea)"><g clip-path="url(#68e1f3cb41)"><g clip-path="url(#c9a9b8eaae)"><path fill="#5271ff" d="M 144.945312 257.371094 C 146.828125 257.839844 148.742188 256.675781 149.222656 254.765625 C 149.6875 252.882812 148.523438 250.96875 146.613281 250.488281 C 145.386719 250.1875 144.246094 249.933594 143.152344 249.730469 C 141.96875 249.488281 140.800781 249.289062 139.59375 249.105469 C 137.671875 248.796875 135.84375 250.140625 135.535156 252.0625 C 135.226562 253.984375 136.542969 255.796875 138.492188 256.121094 C 139.574219 256.277344 140.640625 256.464844 141.722656 256.695312 C 142.878906 256.925781 143.960938 257.15625 144.945312 257.371094 Z M 119.144531 255.546875 C 121.082031 255.375 122.53125 253.640625 122.328125 251.6875 C 122.15625 249.75 120.421875 248.300781 118.46875 248.503906 C 113.007812 249.011719 107.605469 250.074219 102.308594 251.644531 C 97.015625 253.210938 91.902344 255.289062 87.03125 257.824219 C 85.308594 258.730469 84.648438 260.871094 85.550781 262.59375 C 86.457031 264.316406 88.597656 264.976562 90.351562 264.085938 C 94.859375 261.726562 99.539062 259.832031 104.339844 258.414062 C 109.109375 256.984375 114.09375 256.003906 119.144531 255.546875 Z M 72.433594 276.976562 C 73.847656 275.609375 73.894531 273.355469 72.515625 271.96875 C 71.148438 270.554688 68.921875 270.523438 67.507812 271.886719 C 66.484375 272.875 65.417969 273.949219 64.324219 275.152344 C 63.316406 276.253906 62.347656 277.339844 61.410156 278.4375 L 61.355469 278.480469 C 59.046875 281.070312 56.425781 281.800781 54.359375 281.28125 C 53.601562 281.097656 52.929688 280.746094 52.367188 280.304688 C 51.84375 279.851562 51.40625 279.292969 51.152344 278.648438 C 50.445312 276.949219 50.8125 274.53125 53.046875 271.796875 L 53.128906 271.695312 C 67.28125 254.824219 86.292969 243.851562 106.722656 239.535156 C 127.148438 235.21875 148.964844 237.546875 168.738281 247.25 C 169.625 247.671875 170.546875 248.171875 171.535156 248.675781 C 172.324219 249.082031 173.230469 249.613281 174.277344 250.214844 C 175.988281 251.195312 178.128906 250.589844 179.109375 248.882812 C 180.089844 247.171875 179.503906 245.003906 177.777344 244.050781 C 176.917969 243.574219 175.953125 243.015625 174.835938 242.417969 C 173.917969 241.914062 172.925781 241.414062 171.835938 240.898438 C 150.585938 230.460938 127.179688 227.945312 105.269531 232.578125 C 83.332031 237.199219 62.921875 248.984375 47.691406 267.101562 C 47.636719 267.148438 47.609375 267.203125 47.582031 267.261719 C 43.460938 272.289062 42.996094 277.363281 44.621094 281.28125 C 45.3125 283.007812 46.4375 284.484375 47.839844 285.671875 C 49.226562 286.816406 50.863281 287.65625 52.644531 288.109375 C 57.007812 289.1875 62.269531 287.988281 66.527344 283.265625 C 66.59375 283.195312 66.664062 283.121094 66.734375 283.046875 C 67.628906 281.964844 68.582031 280.90625 69.496094 279.9375 C 70.367188 278.980469 71.351562 278.007812 72.433594 276.976562 Z M 211.617188 258.105469 C 213.195312 260.039062 213.386719 262.164062 212.730469 263.851562 C 212.449219 264.59375 211.984375 265.285156 211.429688 265.792969 C 210.902344 266.316406 210.257812 266.714844 209.542969 266.972656 C 207.867188 267.550781 205.691406 267.117188 203.5 265 C 202.246094 263.570312 200.894531 262.125 199.445312 260.671875 C 198.023438 259.230469 196.570312 257.847656 195.066406 256.507812 C 193.617188 255.195312 191.382812 255.332031 190.054688 256.808594 C 188.769531 258.269531 188.90625 260.503906 190.355469 261.820312 C 191.761719 263.074219 193.121094 264.347656 194.429688 265.664062 C 195.691406 266.925781 196.96875 268.300781 198.28125 269.757812 C 198.367188 269.867188 198.46875 269.953125 198.585938 270.078125 C 202.964844 274.3125 207.800781 275.050781 211.839844 273.695312 C 213.554688 273.101562 215.105469 272.117188 216.394531 270.867188 C 217.671875 269.648438 218.671875 268.121094 219.339844 266.476562 C 220.878906 262.542969 220.554688 257.730469 217.085938 253.570312 C 217.027344 253.472656 216.953125 253.402344 216.894531 253.304688 C 210.269531 245.804688 202.730469 239.203125 194.492188 233.566406 C 186.265625 227.976562 177.371094 223.363281 167.949219 219.9375 C 162.058594 217.792969 156.121094 216.113281 150.125 214.9375 C 143.972656 213.71875 137.84375 212.96875 131.730469 212.710938 C 129.769531 212.628906 128.117188 214.128906 128.035156 216.085938 C 127.953125 218.046875 129.480469 219.710938 131.441406 219.792969 C 137.242188 220.039062 143.042969 220.742188 148.753906 221.855469 C 154.453125 223 160.058594 224.558594 165.5625 226.554688 C 174.414062 229.78125 182.808594 234.121094 190.558594 239.386719 C 198.277344 244.636719 205.355469 250.878906 211.617188 257.964844 Z M 49.230469 227.117188 C 49.285156 227.074219 49.382812 227.015625 49.441406 226.972656 C 65.683594 215.183594 84.144531 207.453125 103.402344 203.984375 C 122.683594 200.53125 142.738281 201.398438 162.070312 206.832031 L 163.3125 207.171875 C 163.46875 207.210938 163.46875 207.210938 164.542969 207.542969 C 166.410156 208.105469 168.386719 207.039062 168.953125 205.171875 C 169.519531 203.300781 168.453125 201.324219 166.582031 200.761719 C 166.339844 200.679688 166.265625 200.683594 165.28125 200.394531 L 163.957031 200.011719 C 143.578125 194.261719 122.417969 193.363281 102.105469 196.996094 C 81.832031 200.617188 62.359375 208.78125 45.265625 221.183594 C 39.386719 225.105469 37.75 230.21875 38.535156 234.792969 C 38.847656 236.585938 39.550781 238.285156 40.550781 239.738281 C 41.535156 241.21875 42.796875 242.480469 44.238281 243.4375 C 47.921875 245.875 52.710938 246.417969 56.925781 243.425781 C 57.023438 243.367188 57.089844 243.292969 57.1875 243.234375 C 60.265625 240.867188 63.476562 238.667969 66.789062 236.621094 C 70.15625 234.527344 73.601562 232.648438 77.148438 230.921875 C 78.914062 230.070312 79.660156 227.96875 78.808594 226.203125 C 77.960938 224.4375 75.859375 223.691406 74.09375 224.542969 C 70.335938 226.34375 66.652344 228.359375 63.078125 230.59375 C 59.609375 232.746094 56.191406 235.09375 52.890625 237.636719 L 52.878906 237.664062 C 51.359375 238.734375 49.578125 238.492188 48.167969 237.546875 C 47.507812 237.09375 46.910156 236.5 46.425781 235.816406 C 45.972656 235.144531 45.65625 234.402344 45.511719 233.597656 C 45.195312 231.59375 46.117188 229.1875 49.230469 227.117188 Z M 62.496094 179.277344 L 62.578125 179.246094 C 77.210938 173.179688 92.585938 169.25 108.183594 167.527344 C 123.847656 165.800781 139.765625 166.296875 155.425781 169.050781 C 158.199219 169.554688 161.078125 170.140625 164.085938 170.820312 C 167.050781 171.515625 169.929688 172.242188 172.640625 173.03125 C 174.527344 173.570312 176.472656 172.488281 177.039062 170.617188 C 177.574219 168.734375 176.496094 166.789062 174.625 166.222656 C 171.570312 165.34375 168.574219 164.5625 165.695312 163.90625 C 162.816406 163.25 159.8125 162.640625 156.652344 162.0625 C 140.3125 159.195312 123.742188 158.671875 107.4375 160.484375 C 91.175781 162.277344 75.152344 166.394531 59.875 172.714844 C 59.789062 172.746094 59.75 172.761719 59.664062 172.792969 C 53.628906 175.414062 51.199219 180.046875 51.21875 184.613281 C 51.234375 186.441406 51.628906 188.203125 52.363281 189.847656 C 53.09375 191.488281 54.152344 192.964844 55.453125 194.140625 C 55.554688 194.222656 55.628906 194.292969 55.726562 194.375 C 59.027344 197.191406 63.6875 198.300781 68.695312 195.929688 C 73.636719 193.847656 78.695312 192.027344 83.820312 190.519531 C 88.960938 188.980469 94.21875 187.710938 99.613281 186.75 C 101.53125 186.394531 102.820312 184.546875 102.464844 182.628906 C 102.109375 180.710938 100.265625 179.417969 98.34375 179.777344 C 92.851562 180.796875 87.328125 182.117188 81.820312 183.761719 C 76.445312 185.359375 71.171875 187.253906 65.976562 189.429688 C 65.890625 189.460938 65.765625 189.507812 65.667969 189.566406 C 63.621094 190.5625 61.710938 190.152344 60.398438 189.078125 C 60.351562 189.023438 60.28125 188.953125 60.222656 188.925781 C 59.628906 188.402344 59.144531 187.71875 58.816406 187.003906 C 58.503906 186.257812 58.3125 185.46875 58.308594 184.660156 C 58.320312 182.632812 59.503906 180.566406 62.496094 179.277344 Z M 52.957031 137.292969 C 46.574219 139.609375 43.585938 143.949219 43.105469 148.3125 C 42.90625 150.214844 43.164062 152.125 43.855469 153.851562 C 44.519531 155.566406 45.605469 157.128906 46.996094 158.414062 C 50.429688 161.539062 55.75 162.960938 61.773438 160.507812 L 61.816406 160.492188 C 71.90625 156.699219 82.261719 153.835938 92.75 151.878906 C 103.53125 149.882812 114.507812 148.820312 125.566406 148.777344 C 127.535156 148.761719 129.085938 147.179688 129.097656 145.222656 C 129.082031 143.253906 127.5 141.699219 125.542969 141.691406 C 114.132812 141.742188 102.71875 142.84375 91.46875 144.933594 C 80.554688 146.972656 69.792969 149.960938 59.339844 153.859375 C 59.253906 153.890625 59.210938 153.90625 59.128906 153.9375 L 59.085938 153.949219 L 58.664062 154.101562 C 55.753906 155.148438 53.3125 154.523438 51.824219 153.15625 C 51.230469 152.628906 50.773438 151.960938 50.488281 151.230469 C 50.214844 150.542969 50.085938 149.78125 50.167969 149.082031 C 50.363281 147.179688 51.964844 145.199219 55.4375 143.929688 L 55.476562 143.914062 C 59.273438 142.476562 63.152344 141.152344 67.082031 139.957031 C 71.023438 138.730469 74.996094 137.660156 78.914062 136.707031 C 80.816406 136.234375 81.992188 134.335938 81.523438 132.433594 C 81.054688 130.53125 79.15625 129.355469 77.25 129.824219 C 73.09375 130.84375 69.007812 131.929688 64.980469 133.1875 C 60.96875 134.414062 56.960938 135.785156 52.957031 137.292969 Z M 260.789062 268.703125 C 260.820312 268.789062 260.878906 268.886719 260.9375 268.984375 C 263.382812 273.535156 263.457031 276.722656 262.292969 278.519531 C 261.910156 279.109375 261.421875 279.546875 260.847656 279.871094 C 260.234375 280.210938 259.484375 280.386719 258.734375 280.417969 C 256.597656 280.496094 254.289062 279.371094 252.882812 276.925781 C 246.199219 261.96875 236.996094 248.414062 225.769531 236.855469 C 214.515625 225.277344 201.21875 215.648438 186.425781 208.535156 C 184.648438 207.699219 182.539062 208.457031 181.714844 210.203125 C 180.875 211.980469 181.605469 214.078125 183.382812 214.914062 C 197.402344 221.664062 209.992188 230.785156 220.710938 241.792969 C 231.398438 252.785156 240.148438 265.667969 246.476562 279.894531 C 246.535156 280.0625 246.636719 280.214844 246.710938 280.355469 C 249.535156 285.367188 254.453125 287.648438 259.011719 287.484375 C 260.839844 287.402344 262.628906 286.949219 264.226562 286.089844 C 265.863281 285.214844 267.308594 283.933594 268.332031 282.277344 C 270.710938 278.496094 271.089844 272.789062 267.195312 265.589844 C 263.5 257.894531 259.203125 250.578125 254.394531 243.6875 C 249.511719 236.726562 244.058594 230.164062 238.105469 224.0625 C 236.726562 222.679688 234.5 222.644531 233.113281 224.023438 C 231.726562 225.402344 231.695312 227.628906 233.074219 229.015625 C 238.722656 234.792969 243.929688 241.066406 248.621094 247.761719 C 253.199219 254.40625 257.300781 261.382812 260.789062 268.703125 Z M 306.03125 266.445312 C 302.734375 257.605469 298.820312 249.105469 294.378906 240.988281 C 289.851562 232.757812 284.71875 224.835938 279.003906 217.34375 C 277.816406 215.769531 275.601562 215.496094 274.066406 216.664062 C 272.523438 217.863281 272.21875 220.066406 273.386719 221.597656 C 278.84375 228.757812 283.769531 236.371094 288.191406 244.378906 C 292.515625 252.230469 296.261719 260.40625 299.394531 268.855469 C 299.425781 269.011719 299.5 269.152344 299.546875 269.277344 C 301.386719 273.472656 301.101562 276.386719 299.761719 278.03125 C 299.308594 278.625 298.722656 279.050781 298.050781 279.292969 C 297.347656 279.59375 296.554688 279.710938 295.773438 279.65625 C 293.671875 279.507812 291.527344 278.109375 290.359375 275.316406 L 290.328125 275.234375 C 289.433594 272.671875 288.496094 270.199219 287.488281 267.800781 C 286.484375 265.328125 285.40625 262.859375 284.328125 260.457031 C 283.507812 258.707031 281.390625 257.917969 279.636719 258.738281 C 277.855469 259.546875 277.097656 261.675781 277.917969 263.429688 C 278.992188 265.757812 280.027344 268.101562 280.972656 270.472656 C 281.949219 272.859375 282.855469 275.25 283.707031 277.613281 C 283.75 277.738281 283.796875 277.863281 283.855469 277.964844 C 286.195312 283.550781 290.757812 286.367188 295.300781 286.683594 C 297.1875 286.839844 299.082031 286.539062 300.78125 285.835938 C 302.523438 285.113281 304.113281 283.972656 305.324219 282.441406 C 308.132812 278.929688 309.113281 273.433594 306.03125 266.445312 Z M 336.902344 247.996094 L 336.84375 247.898438 C 335.792969 245.300781 334.769531 242.855469 333.710938 240.570312 C 332.558594 238.03125 331.394531 235.519531 330.191406 233.09375 C 329.328125 231.359375 327.183594 230.628906 325.449219 231.492188 C 323.710938 232.351562 322.980469 234.496094 323.84375 236.234375 C 325.046875 238.660156 326.152344 241.070312 327.226562 243.472656 C 328.320312 245.914062 329.339844 248.285156 330.269531 250.546875 C 330.300781 250.699219 330.375 250.839844 330.421875 250.96875 C 332.839844 256.171875 332.683594 259.84375 331.269531 261.878906 C 330.84375 262.484375 330.304688 262.964844 329.6875 263.230469 C 329.054688 263.53125 328.347656 263.617188 327.609375 263.550781 C 325.5625 263.355469 323.386719 261.804688 321.996094 258.660156 L 321.980469 258.621094 C 316.078125 243.121094 308.382812 228.527344 299.152344 215.03125 C 289.859375 201.441406 278.980469 188.992188 266.761719 177.976562 C 265.3125 176.664062 263.089844 176.773438 261.777344 178.21875 C 260.464844 179.667969 260.570312 181.890625 262.019531 183.203125 C 273.808594 193.875 284.335938 205.878906 293.304688 219.039062 C 302.195312 232.058594 309.628906 246.175781 315.347656 261.167969 C 315.394531 261.296875 315.425781 261.378906 315.484375 261.476562 C 318 267.289062 322.535156 270.230469 326.9375 270.625 C 328.882812 270.808594 330.832031 270.464844 332.570312 269.671875 C 334.3125 268.878906 335.867188 267.582031 337.050781 265.898438 C 339.835938 261.988281 340.558594 255.847656 336.902344 247.996094 Z M 88.847656 91.394531 C 82.433594 92.292969 78.367188 96.015625 76.792969 100.25 C 76.152344 101.980469 75.910156 103.828125 76.109375 105.640625 C 76.308594 107.449219 76.945312 109.21875 78.042969 110.753906 C 80.476562 114.214844 85.050781 116.546875 91.757812 115.992188 C 91.929688 116.003906 92.113281 115.984375 92.296875 115.964844 L 92.609375 115.902344 C 92.722656 115.886719 92.863281 115.882812 92.988281 115.835938 C 101.535156 114.503906 110.179688 113.707031 118.902344 113.40625 C 127.769531 113.101562 136.695312 113.347656 145.585938 114.105469 C 153.457031 114.800781 161.308594 115.910156 169.039062 117.414062 C 176.832031 118.949219 184.488281 120.914062 192.011719 123.234375 C 193.871094 123.828125 195.871094 122.773438 196.4375 120.90625 C 197.035156 119.046875 195.980469 117.046875 194.109375 116.480469 C 186.300781 114.023438 178.398438 112.050781 170.394531 110.453125 C 162.40625 108.894531 154.328125 107.75 146.1875 107.03125 C 137.039062 106.222656 127.832031 105.984375 118.609375 106.296875 C 109.703125 106.617188 100.761719 107.449219 91.875 108.832031 L 91.761719 108.847656 C 87.566406 109.355469 84.988281 108.28125 83.832031 106.652344 C 83.433594 106.078125 83.207031 105.445312 83.121094 104.808594 C 83.050781 104.144531 83.144531 103.417969 83.414062 102.703125 C 84.160156 100.675781 86.3125 98.851562 89.804688 98.359375 C 89.875 98.359375 89.945312 98.355469 90.03125 98.328125 C 94.113281 97.691406 98.210938 97.171875 102.328125 96.765625 C 106.558594 96.339844 110.675781 96.003906 114.683594 95.824219 C 116.621094 95.722656 118.128906 94.085938 118.039062 92.117188 C 117.9375 90.179688 116.273438 88.660156 114.332031 88.761719 C 109.957031 88.976562 105.710938 89.285156 101.625 89.707031 C 97.394531 90.132812 93.183594 90.667969 88.976562 91.347656 Z M 343.09375 197.835938 C 343.152344 197.933594 343.214844 198.03125 343.273438 198.128906 C 345.75 201.574219 346.085938 204.5 345.238281 206.519531 C 344.945312 207.222656 344.476562 207.839844 343.917969 208.28125 C 343.363281 208.71875 342.703125 209.003906 341.96875 209.148438 C 340.105469 209.460938 337.847656 208.675781 335.777344 206.300781 C 325.503906 189.371094 313.25 173.820312 299.402344 160.007812 C 285.398438 146.015625 269.730469 133.761719 252.722656 123.539062 C 251.054688 122.542969 248.871094 123.089844 247.875 124.757812 C 246.878906 126.425781 247.425781 128.609375 249.09375 129.605469 C 265.585938 139.515625 280.789062 151.410156 294.386719 165 C 307.929688 178.496094 319.847656 193.640625 329.828125 210.152344 C 329.917969 210.335938 330.050781 210.5 330.179688 210.667969 C 334.101562 215.355469 338.972656 216.84375 343.164062 216.121094 C 345.042969 215.78125 346.8125 215.003906 348.273438 213.835938 C 349.761719 212.679688 350.933594 211.164062 351.714844 209.359375 C 353.460938 205.28125 353.121094 199.828125 349.089844 194.109375 C 335.765625 172.800781 319.484375 153.601562 300.898438 137.0625 C 282.210938 120.445312 261.203125 106.515625 238.414062 95.773438 C 230.414062 92.003906 222.199219 88.621094 213.78125 85.671875 C 205.40625 82.703125 196.855469 80.179688 188.230469 78.113281 C 186.347656 77.644531 184.433594 78.808594 183.953125 80.722656 C 183.484375 82.601562 184.648438 84.519531 186.558594 85 C 194.957031 87.027344 203.25 89.5 211.425781 92.375 C 219.503906 95.234375 227.519531 98.519531 235.429688 102.25 C 257.617188 112.707031 278.078125 126.238281 296.199219 142.347656 C 314.28125 158.402344 330.109375 177.070312 343.09375 197.835938 Z M 169.707031 81.503906 C 171.617188 81.84375 173.457031 80.539062 173.796875 78.632812 C 174.132812 76.722656 172.828125 74.882812 170.921875 74.546875 C 168.261719 74.097656 165.585938 73.675781 162.925781 73.300781 C 160.066406 72.898438 157.394531 72.546875 154.890625 72.28125 C 152.960938 72.070312 151.175781 73.472656 150.96875 75.40625 C 150.757812 77.339844 152.160156 79.121094 154.09375 79.332031 C 156.890625 79.632812 159.480469 79.941406 161.910156 80.28125 C 164.542969 80.648438 167.117188 81.054688 169.707031 81.503906 Z M 231.574219 120.019531 C 233.339844 120.882812 235.433594 120.15625 236.300781 118.390625 C 237.167969 116.628906 236.4375 114.53125 234.675781 113.664062 C 220.320312 106.585938 205.347656 100.964844 189.984375 96.839844 C 174.589844 92.703125 158.808594 90.066406 142.875 89.003906 C 141.683594 88.933594 140.292969 88.835938 138.71875 88.761719 C 136.972656 88.671875 135.59375 88.621094 134.558594 88.589844 C 132.601562 88.507812 130.964844 90.046875 130.882812 92.003906 C 130.800781 93.964844 132.339844 95.601562 134.300781 95.683594 C 135.988281 95.742188 137.335938 95.78125 138.355469 95.84375 C 139.519531 95.902344 140.855469 95.96875 142.375 96.089844 C 157.894531 97.132812 173.234375 99.667969 188.128906 103.675781 C 203.0625 107.667969 217.609375 113.15625 231.574219 120.019531 Z M 314.304688 218.707031 C 315.308594 220.371094 317.519531 220.886719 319.152344 219.871094 C 320.816406 218.867188 321.359375 216.671875 320.316406 215.023438 C 307.890625 194.628906 292.328125 176.363281 274.289062 160.890625 C 256.382812 145.511719 236.015625 132.902344 213.839844 123.675781 C 212.023438 122.925781 209.972656 123.78125 209.207031 125.554688 C 208.453125 127.375 209.3125 129.421875 211.085938 130.191406 C 232.601562 139.175781 252.320312 151.375 269.679688 166.285156 C 287.179688 181.257812 302.25 198.941406 314.304688 218.707031 Z M 246.296875 170.328125 C 247.882812 171.496094 250.085938 171.132812 251.242188 169.574219 C 252.410156 167.988281 252.046875 165.785156 250.488281 164.632812 C 248.773438 163.367188 246.914062 162.035156 244.953125 160.691406 C 243.152344 159.457031 241.253906 158.210938 239.265625 156.925781 C 237.625 155.871094 235.425781 156.375 234.371094 158.015625 C 233.320312 159.65625 233.824219 161.855469 235.464844 162.910156 C 237.25 164.03125 239.050781 165.265625 240.9375 166.539062 C 242.636719 167.691406 244.421875 168.953125 246.296875 170.328125 Z M 218.007812 152.894531 C 219.757812 153.792969 221.882812 153.074219 222.761719 151.355469 C 223.65625 149.605469 222.941406 147.480469 221.222656 146.597656 C 210.03125 140.902344 198.355469 136.242188 186.433594 132.691406 C 174.457031 129.113281 162.179688 126.621094 149.699219 125.222656 C 141.015625 124.246094 132.316406 123.824219 123.640625 123.941406 C 114.925781 124.074219 106.25 124.714844 97.617188 125.9375 C 95.667969 126.207031 94.335938 127.996094 94.605469 129.945312 C 94.878906 131.898438 96.667969 133.230469 98.617188 132.957031 C 106.941406 131.800781 115.332031 131.167969 123.734375 131.027344 C 132.125 130.917969 140.554688 131.320312 148.914062 132.246094 C 160.9375 133.566406 172.816406 136.011719 184.421875 139.484375 C 195.957031 142.960938 207.261719 147.445312 218.007812 152.894531 Z M 259.953125 205.878906 C 261.289062 207.277344 263.53125 207.355469 264.945312 205.988281 C 266.347656 204.652344 266.421875 202.410156 265.054688 200.996094 C 256.933594 192.507812 248.050781 184.746094 238.476562 177.855469 C 228.960938 170.988281 218.8125 165.011719 208.148438 159.988281 C 199.234375 155.785156 189.964844 152.257812 180.417969 149.472656 C 171.496094 146.847656 162.40625 144.875 153.203125 143.585938 L 153.132812 143.585938 C 152.007812 143.441406 151.027344 143.296875 150.203125 143.1875 C 149.035156 143.058594 148.054688 142.910156 147.273438 142.859375 C 145.339844 142.648438 143.558594 144.050781 143.347656 145.984375 C 143.140625 147.914062 144.542969 149.699219 146.472656 149.90625 C 147.609375 150.023438 148.5625 150.15625 149.300781 150.226562 C 150.328125 150.355469 151.195312 150.449219 151.949219 150.5625 L 151.976562 150.574219 L 152.105469 150.597656 C 161.007812 151.851562 169.785156 153.746094 178.378906 156.253906 C 187.457031 158.921875 196.394531 162.328125 205.082031 166.421875 C 215.429688 171.300781 225.21875 177.070312 234.316406 183.636719 C 243.582031 190.210938 252.148438 197.679688 259.953125 205.878906 Z M 268.433594 245.714844 C 269.464844 247.390625 271.644531 247.894531 273.292969 246.851562 C 274.972656 245.820312 275.472656 243.636719 274.429688 241.988281 C 268.332031 232.109375 261.3125 222.914062 253.433594 214.507812 C 245.539062 206.058594 236.800781 198.433594 227.414062 191.734375 C 225.816406 190.59375 223.613281 190.957031 222.5 192.570312 C 221.363281 194.171875 221.726562 196.375 223.339844 197.484375 C 232.363281 203.910156 240.710938 211.242188 248.285156 219.332031 C 255.800781 227.394531 262.570312 236.226562 268.433594 245.714844 Z M 206.765625 187.082031 C 208.488281 188.035156 210.613281 187.390625 211.566406 185.667969 C 212.519531 183.941406 211.875 181.816406 210.152344 180.863281 C 207.507812 179.410156 204.738281 178 201.859375 176.605469 C 199.035156 175.238281 196.195312 173.972656 193.363281 172.777344 C 191.542969 172.027344 189.496094 172.882812 188.726562 174.65625 C 187.976562 176.476562 188.832031 178.523438 190.609375 179.292969 C 193.414062 180.472656 196.136719 181.6875 198.789062 182.972656 C 201.410156 184.242188 204.066406 185.597656 206.765625 187.082031 Z M 218.367188 215.917969 C 219.894531 217.128906 222.128906 216.851562 223.3125 215.304688 C 224.523438 213.773438 224.246094 211.542969 222.703125 210.359375 C 218.125 206.765625 213.324219 203.417969 208.378906 200.382812 C 203.417969 197.308594 198.277344 194.539062 193.03125 192.066406 C 187.8125 189.605469 182.460938 187.433594 176.960938 185.578125 C 171.5 183.703125 165.921875 182.160156 160.25 180.890625 C 153.46875 179.375 146.636719 178.328125 139.835938 177.75 C 132.960938 177.171875 126.050781 177.035156 119.171875 177.363281 C 117.203125 177.453125 115.695312 179.089844 115.78125 181.058594 C 115.871094 183.027344 117.507812 184.535156 119.476562 184.445312 C 126.03125 184.136719 132.628906 184.265625 139.203125 184.808594 C 145.765625 185.378906 152.28125 186.347656 158.710938 187.800781 C 164.066406 188.996094 169.417969 190.5 174.648438 192.265625 C 179.835938 194.042969 184.960938 196.109375 190.003906 198.484375 C 195.078125 200.878906 199.988281 203.542969 204.664062 206.410156 C 209.453125 209.332031 214.019531 212.503906 218.367188 215.917969 Z M 111.753906 220.675781 C 113.691406 220.433594 115.054688 218.65625 114.8125 216.71875 C 114.566406 214.785156 112.792969 213.421875 110.855469 213.664062 C 108.242188 214.007812 105.570312 214.46875 102.90625 214.996094 C 100.238281 215.527344 97.628906 216.15625 95.066406 216.839844 C 93.175781 217.351562 92.058594 219.277344 92.570312 221.164062 C 93.082031 223.050781 95.007812 224.167969 96.898438 223.65625 C 99.390625 222.976562 101.828125 222.410156 104.300781 221.925781 C 106.710938 221.417969 109.210938 221.019531 111.753906 220.675781 Z M 111.753906 220.675781 " fill-opacity="1" fill-rule="nonzero"/></g></g></g></svg>